# xmcd
#
# Track frame offsets:
#	150
#	8523
#	18143
#	28502
#	37503
#	49070
#	61388
#	74011
#	86133
#	98137
#	110872
#	122507
#	135675
#	147406
#	157376
#	167789
#	177876
#
# Disc length: 2509 seconds
#
# Revision: 0
# Processed by: cddbd v1.5.2PL0 Copyright (c) Steve Scherf et al.
# Submitted via: EZCDAudioConverter 7.1.5.1
#
DISCID=e509cb11
DTITLE=Various Artist - '60s Country - King of the Road
DYEAR=2018
DGENRE=Country
TTITLE0=Roger Miller - Dang Me
TTITLE1=George Jones - The Race Is On
TTITLE2=Ferlin Husky - Wings of a Dove
TTITLE3=Buck Owens and the Buckaroos - Buckaroo
TTITLE4=Jack Greene - There Goes My Everything
TTITLE5=Patsy Cline - Crazy
TTITLE6=Bill Anderson - Still
TTITLE7=Brenda Lee - I’m Sorry
TTITLE8=Bobby Edwards - You’re the Reason
TTITLE9=Sonny James - Since I Met You, Baby
TTITLE10=George Jones - The Window Up Above
TTITLE11=Kenny Rogers and the First Edition - Ruby, Don’t Take Your Love To To
TTITLE11=wn
TTITLE12=Patsy Cline - Sweet Dreams (Of You)
TTITLE13=Loretta Lynn - Fist City
TTITLE14=Buck Owens - Waitin’ in Your Welfare Line
TTITLE15=Jean Shepard - Second Fiddle (To An Old Guitar)
TTITLE16=Copas - Alabam Cowboy
EXTD=
EXTT0=
EXTT1=
EXTT2=
EXTT3=
EXTT4=
EXTT5=
EXTT6=
EXTT7=
EXTT8=
EXTT9=
EXTT10=
EXTT11=
EXTT12=
EXTT13=
EXTT14=
EXTT15=
EXTT16=
PLAYORDER=
